<svg width="120" height="120" viewBox="0 0 120 120" fill="none" xmlns="http://www.w3.org/2000/svg">
<path d="M61.0689 22.3234C53.5241 22.2662 46.2901 25.8301 43.1019 32.9961C42.7124 33.872 42.5143 35.0549 41.3764 35.1742C37.6046 35.5689 43.5491 27.6784 44.1793 26.9779C48.0397 22.687 53.3155 20.2072 59.0708 19.8954C67.3679 19.0585 75.8546 24.8804 79.3499 32.2232C79.7467 33.0571 80.4179 35.1632 78.7297 35.0371C77.3764 34.9361 77.147 33.3325 76.6412 32.3422C73.6393 26.465 67.5777 22.8503 61.0689 22.3234Z" fill="#E21F2F"/>
<path d="M60.5587 53.9938C53.1946 54.2734 47.0006 48.5253 46.7299 41.1608C46.4594 33.7963 52.2152 27.6095 59.5799 27.3479C66.9318 27.087 73.1057 32.8304 73.3757 40.182C73.6457 47.5337 67.9099 53.7146 60.5587 53.9938ZM58.9736 29.8166C52.9792 30.4142 48.6053 35.7594 49.2058 41.7533C49.8063 47.7474 55.1535 52.1188 61.1472 51.5155C67.1369 50.9124 71.5047 45.5696 70.9047 39.5797C70.3047 33.5898 64.9638 29.2194 58.9736 29.8166Z" fill="#E21F2F"/>
<path d="M90.4387 47.7941C88.6415 47.8138 88.7048 44.6492 85.9464 42.8954C85.3652 42.5258 84.122 42.1159 83.8211 41.4676C83.1534 40.0292 86.2178 39.0983 87.4476 37.835C88.5009 36.7529 88.6445 34.6918 89.9659 34.1635C91.322 34.0923 91.472 35.4805 91.9755 36.4468C92.5523 37.554 93.3095 38.3614 94.3471 39.0507C95.1445 39.5804 97.327 40.212 96.5491 41.5236C95.7866 42.8089 93.2081 42.6617 91.8266 46.0618C91.51 46.8416 91.3607 47.5899 90.4387 47.7941ZM90.2212 38.3558C89.4337 39.4058 88.5782 40.2451 87.4945 40.9871C88.0642 41.3888 90.2132 43.6391 90.2212 43.6419C90.9473 42.5935 91.8025 41.6635 92.8912 40.9871C91.8578 40.3597 90.3189 38.405 90.2212 38.3558Z" fill="#E21F2F"/>
<path d="M58.7269 37.3513C58.7325 36.1477 58.3397 34.6234 59.8964 34.3557C61.5071 34.5043 61.2382 36.1323 61.2249 37.3513C62.1036 37.3714 63.7083 37.082 64.399 37.7298C64.8469 38.15 64.8614 39.0125 64.4157 39.44C63.8133 40.0177 62.0543 39.8061 61.2249 39.7986V42.1274C62.1082 42.1262 63.7571 41.9045 64.4164 42.5799C64.8469 43.021 64.7269 43.8631 64.3027 44.2653C63.7116 44.8259 62.0482 44.6019 61.2249 44.5988C61.2256 45.8825 61.4419 47.0422 59.8964 47.3131C58.5284 46.971 58.7351 45.7494 58.7269 44.5988C57.8628 44.5878 56.2046 44.822 55.5345 44.1758C55.0969 43.7542 55.0918 42.9083 55.5406 42.4934C56.2027 41.8813 57.8595 42.1189 58.7269 42.1274V39.7986C57.8086 39.7909 56.3431 40.0717 55.5891 39.4681C55.1044 39.08 55.0601 38.2454 55.486 37.7973C56.1319 37.1174 57.8255 37.3637 58.7269 37.3513Z" fill="#E21F2F"/>
<path d="M35.9871 58.5162C34.0767 58.5499 33.5479 55.2424 32.4911 54.0614C31.4151 52.8588 27.059 51.8737 27.4328 50.1965C27.6899 49.0437 31.3994 47.8263 32.3983 46.8869C33.4631 45.8857 33.9499 42.6867 35.2802 41.9079C37.4198 41.6327 37.7174 45.3972 38.8647 46.8241C39.7987 47.9862 42.9876 48.7144 43.7001 49.8229C44.8865 51.6691 40.0804 52.8907 38.9985 53.9625C37.8372 55.1128 37.461 57.6747 35.9871 58.5162ZM35.7121 46.0865C33.7359 49.5597 34.8693 48.1774 31.3511 50.4511C32.4979 51.0822 34.0492 51.6883 34.7076 52.8694C35.0097 53.4112 35.2928 54.1165 35.7121 54.5672C37.4327 51.6705 36.9412 52.1639 40.0558 50.4511C39.3581 50.0981 37.469 49.2799 37.0523 48.7676C36.4455 48.0208 36.2559 46.9012 35.7121 46.0865Z" fill="#E21F2F"/>
<path d="M49.1624 58.5162C46.8728 56.7005 48.3196 55.4246 49.5032 55.8608C50.032 56.0558 51.1153 56.889 51.723 57.2241C59.958 61.7682 70.6811 58.448 75.73 50.7755C76.4149 49.7347 77.0498 47.6166 78.1021 47.3131C80.5331 46.7342 79.3999 49.3466 78.7687 50.4746C73.5803 59.7493 62.4124 64.2936 52.4207 60.1965C51.2807 59.7291 50.2328 59.1186 49.1624 58.5162Z" fill="#E21F2F"/>
<path d="M30.006 72.1873C35.8265 68.2615 42.1042 66.2459 49.0293 65.7458C52.214 65.6548 55.267 65.9724 58.3497 66.7932C62.4088 67.8739 62.1002 67.9803 66.4572 67.9787L73.7172 67.9742C74.9924 67.9733 76.3741 67.8669 77.6308 68.0832C82.3715 68.8993 82.8695 75.6994 78.6327 77.3426C77.0659 77.9504 70.1134 78.6809 68.0538 78.9568C69.9604 79.5715 71.6071 80.6269 73.6689 80.7786C76.1343 80.96 78.547 79.7658 80.8155 78.9619L91.3176 75.124C92.7126 74.6173 94.244 73.7628 95.7543 73.8226C99.2219 73.9599 101.463 78.2431 99.261 81.0767C96.8875 84.1306 86.5091 90.3132 83.0352 92.2634C82.3534 92.6462 81.5988 92.9921 81.0161 93.519L80.958 93.5726C79.7024 93.9507 78.558 94.7136 77.3873 95.2972C74.6317 96.6708 70.0045 98.9867 67.0706 99.6066C61.1985 100.847 58.3891 98.5081 53.2467 96.7526C47.3355 94.7347 41.0627 93.8607 34.8332 93.7463C33.3719 93.7194 31.8986 93.8201 30.4415 93.7426C28.5602 96.5865 26.3453 96.2698 23.0378 95.9607C19.4772 95.6281 19.803 92.2583 19.8045 89.7765L19.8039 76.977C19.8019 75.058 19.3692 72.5991 21.0988 71.2505C23.0379 69.7381 28.1624 69.853 30.006 72.1873ZM49.8934 68.2011C43.5424 68.303 35.6465 70.9829 30.4415 74.8058V91.2943C32.4567 91.3458 34.4706 91.2753 36.4877 91.344C43.9474 91.5971 50.4562 93.0127 57.362 95.6424C63.1987 97.865 64.0935 98.2683 70.3192 95.7624C78.9306 92.2962 88.7608 86.3914 96.1502 80.5224C98.1763 78.8916 98.0786 76.5186 95.6437 76.3587C94.7277 76.2985 92.8912 77.2487 91.9445 77.5937L79.7845 81.987C75.1239 83.6839 73.0694 83.7875 68.2476 81.7358L65.1306 80.4254C62.2541 79.2024 59.6809 79.8134 56.7869 81.1306C56.1456 81.4224 55.4809 81.999 54.7898 82.1274C54.0042 82.2737 53.3334 81.4458 53.4191 80.7019C53.7025 78.2438 62.6908 77.2489 64.5407 76.9883L73.7908 75.6249C74.8171 75.4688 76.8405 75.3676 77.7156 74.9799C79.1127 74.3612 79.4779 72.474 78.5545 71.3037C77.451 69.9055 74.2987 70.3866 72.708 70.3871L64.9731 70.3883C61.3183 70.3876 62.0976 70.4597 58.7688 69.4416C56.1824 68.6506 52.5916 67.9583 49.8934 68.2011ZM23.0487 72.9373C21.6989 73.3812 22.2034 75.9776 22.2098 77.2229L22.2101 88.6848C22.2128 94.3538 21.7235 93.6469 27.2781 93.5726C27.6213 93.4076 27.8242 93.2326 28.0427 92.9227L28.0474 76.0522C28.0556 72.0071 27.6445 72.8281 23.0487 72.9373Z" fill="#E21F2F"/>
</svg>
