<svg width="120" height="120" viewBox="0 0 120 120" fill="none" xmlns="http://www.w3.org/2000/svg">
<path d="M68.0942 34.65L68.1666 34.5867C68.858 33.9764 69.5574 33.7209 70.4642 33.5929C74.3063 33.355 76.7506 37.0507 75.1411 40.6247C74.1942 42.7277 69.9122 46.534 68.0942 47.22C67.3442 46.9603 66.7735 46.4369 66.1725 45.9396C64.1267 44.2994 61.4487 42.4031 60.7053 39.7645C59.4 35.1311 63.6882 32.1098 68.0942 34.65ZM64.857 35.9285C63.4564 36.2233 62.5261 37.4046 62.8596 38.8539C63.3985 41.1965 66.3886 42.9422 68.0942 44.44C68.9862 43.7025 69.9171 42.9958 70.7825 42.2285C71.8568 41.2898 73.1925 40.0148 73.2994 38.4897C73.3903 37.1899 72.301 35.9395 70.9842 35.9238C69.5086 35.9062 69.0249 37.5506 67.9421 37.489C66.9432 37.432 66.5494 35.8382 64.857 35.9285Z" fill="#E21F2F"/>
<path d="M53.5926 50.5788C52.3261 51.536 51.4704 52.6575 49.9533 51.4976C47.8038 49.8546 45.067 48.0478 44.708 45.1296C44.3993 42.6211 45.9464 40.436 48.4875 40.1578C49.5891 40.0866 50.393 40.4044 51.2897 41.0102C54.4416 38.8038 58.1925 41.2866 57.7301 45.1317C57.4397 47.5448 55.3694 49.1665 53.5926 50.5788ZM48.4875 42.488C44.3728 43.902 49.4709 48.3293 51.2897 49.4189C52.0699 48.8168 52.8544 48.2201 53.5926 47.5664C54.4491 46.7363 55.4147 45.6912 55.4545 44.422C55.4855 43.432 54.6862 42.4193 53.6316 42.4718C52.518 42.5271 51.7357 44.6588 50.5343 43.6034C49.7311 42.8979 49.6999 42.4451 48.4875 42.488Z" fill="#E21F2F"/>
<path d="M53.7853 60.2008C59.2245 53.4503 66.3319 49.7816 75.1618 49.7345C78.3945 49.5421 83.1453 50.4241 86.0536 51.8146C92.021 54.6676 91.1124 54.273 98.071 54.2659C99.8764 50.8426 104.079 50.102 106.168 53.41C107.165 54.989 106.883 57.0147 106.852 58.7891L106.64 74.038C106.623 75.0812 106.717 77.3031 106.488 78.2481C105.553 82.1064 100.454 82.5695 98.3644 79.0323L90.5806 79.0335C89.434 79.0323 88.0097 78.9037 86.8957 79.0811C86.0494 79.2158 85.0336 79.8437 83.9982 80.0634L64.8446 83.9343L58.4217 85.3281C52.2033 86.6849 50.5172 86.9666 44.4647 84.6679C41.1493 83.3711 37.7825 82.168 34.4389 80.943L31.451 79.8585C30.5745 79.5351 29.6914 79.1748 28.7815 78.958C25.4089 78.1544 20.7881 79.2728 17.8269 78.4656C14.9909 77.6924 13.2817 75.1698 13.2523 72.2769L13.2496 65.8396C13.2453 60.0951 13.0073 55.8135 20.629 55.787C25.5089 55.7701 26.2812 56.0694 30.7735 54.1476C37.2762 51.3655 44.8524 52.2604 50.3311 56.8565C51.5522 57.8809 52.658 59.0734 53.7853 60.2008ZM73.6341 52.0855C67.3128 52.7626 61.6646 54.9719 57.2243 59.6901L74.5859 59.688C75.3713 59.6877 77.0466 59.4252 77.6496 60.059C78.4034 60.8509 77.7863 61.9401 76.8068 62.0202C76.039 62.083 75.233 62.0355 74.4621 62.0348L55.53 62.0333C58.441 65.0043 62.006 67.199 60.6642 71.8593C65.3496 71.11 70.0264 70.2543 74.7021 69.4436L79.4307 68.6064C81.413 68.249 82.695 68.0364 84.6924 68.1899C88.5031 70.1448 89.8414 72.5671 88.5785 76.7179C91.741 76.7549 94.9078 76.7174 98.071 76.7179L98.0684 71.9144C98.0682 71.1374 97.7942 69.1309 98.3782 68.5098C99.1221 67.7188 100.2 68.0521 100.38 69.1504C100.724 71.249 99.8932 76.4242 100.563 78.0107C101.065 79.1997 102.651 79.4655 103.598 78.6648C104.634 77.7887 104.33 74.3198 104.356 72.9833L104.554 57.4839C104.556 56.8912 104.649 56.2218 104.567 55.6387C104.343 54.0456 102.2 52.8791 100.965 54.1443C100.159 54.9702 100.34 56.478 98.9407 56.5307C94.8832 56.6835 90.1207 56.732 86.5271 54.8266C81.8292 52.3356 79.0835 52.0082 73.6341 52.0855ZM36.8867 54.9599C32.865 55.5175 30.6066 57.3219 27.4142 57.8889C24.8393 58.3459 19.048 57.6644 17.3085 58.7582C15.4294 59.9394 15.5454 61.8088 15.5615 63.7398L15.5671 70.6061C15.5529 75.6522 16.9493 76.353 21.4438 76.3494L25.1998 76.3457C28.8598 76.3431 29.4504 76.6691 32.9297 77.9195L43.2715 81.6864C46.6329 82.9298 49.6936 84.4757 53.3735 83.8949C56.131 83.4599 58.8814 82.783 61.6156 82.2086L80.5657 78.3283C81.8892 78.0653 83.3023 77.8982 84.578 77.4545C86.2765 76.8637 87.076 74.7845 86.6082 73.1338C85.3974 69.8174 82.598 70.4528 79.7869 70.9283L61.1128 74.1545C58.8699 74.5359 58.9456 74.6125 56.9918 75.3794C53.4239 76.78 50.8894 73.7111 48.5918 71.5354C47.4239 70.4294 46.2303 69.3365 45.1022 68.1899C44.0199 68.178 39.8815 68.4531 39.2225 67.8166C38.7471 67.3576 38.7289 66.5425 39.2147 66.0845C39.8246 65.5096 44.8498 65.7346 45.8768 65.7538C46.6962 66.4192 47.4324 67.2032 48.1976 67.9298L51.3347 70.8564C52.5839 72.0435 53.6597 73.5112 55.5757 73.3016C57.421 73.0998 58.8926 71.2649 58.6421 69.4197C58.4595 68.0732 57.3153 67.1575 56.4115 66.2509L50.7408 60.5064C46.7991 56.541 42.761 54.5062 36.8867 54.9599Z" fill="#E21F2F"/>
<path d="M98.7183 65.281C97.0507 65.3668 97.5497 63.9989 97.1307 62.9679C96.6143 61.6979 94.1958 59.9318 96.4107 58.9393C98.3515 58.9196 101.17 64.5345 98.7183 65.281Z" fill="#E21F2F"/>
</svg>
