<svg width="120" height="120" viewBox="0 0 120 120" fill="none" xmlns="http://www.w3.org/2000/svg">
<path d="M65.0812 55.0873C62.1771 56.261 53.8249 61.2282 53.7312 54.5717C53.6829 51.1235 53.7366 47.6684 53.7337 44.2193L53.7302 39.6575C53.7293 37.6566 53.6969 35.6391 54.1716 33.6797C56.5772 23.75 67.2042 17.7655 76.9148 17.6257C83.2938 16.9281 91.8799 20.511 96.3138 25.0467C103.691 32.5932 103.686 43.8359 96.0703 51.2171C90.4001 56.7129 83.5732 58.4363 75.9891 58.3114C70.8694 57.8056 69.4003 56.8025 65.1366 55.1086L65.0812 55.0873ZM76.9148 20.2071C71.2474 20.2931 65.0203 22.6769 61.0552 26.7628C55.5668 32.4188 56.238 36.5984 56.2371 43.8221C56.2366 47.3152 56.1766 50.8184 56.2259 54.3101C56.2575 56.5498 57.784 55.3418 59.0355 54.7878C66.2993 51.5724 63.3401 51.8459 69.3323 54.2297C71.3735 55.0416 73.4859 55.3878 75.6302 55.7867L75.7301 55.7808C76.4489 55.7421 77.1659 55.8129 77.8844 55.8197C88.0155 55.9177 99.8355 48.5817 99.2965 37.418C98.7888 26.9014 86.6902 19.0541 76.9148 20.2071Z" fill="#E21F2F"/>
<path d="M24.5706 56.4614C23.036 48.1864 24.8488 38.3871 30.808 32.2203C35.8365 27.0169 43.9173 24.8398 50.9549 24.7137C52.5015 24.5916 54.1281 24.7723 55.6637 24.9544C55.0953 25.7314 54.5743 26.5437 53.9774 27.2991C52.9632 27.3652 51.9437 27.2534 50.9272 27.2768C42.8537 27.4629 33.9995 30.4203 29.8389 37.8136C26.871 43.0871 25.6213 51.12 27.2825 57.0875C25.4478 59.3459 21.8452 66.2213 20.4591 68.8613C21.7683 69.6277 24.171 70.4712 25.6316 71.0053C25.6534 73.865 25.1549 73.7949 24.7754 76.0646C26.4695 79.1152 27.3158 76.197 25.8083 80.8519L25.7802 80.9405C26.2356 81.7503 27.1578 82.2804 27.5207 83.1061C28.1012 84.4268 27.3749 88.1175 27.8701 89.7884C28.5896 92.2165 30.6095 92.1586 32.6614 92.1528L37.6222 92.1399C41.9504 92.1296 43.5153 92.3133 44.8023 96.8672L45.5868 99.7348C45.9027 100.753 46.2704 102.338 44.7296 102.375C42.7972 102.422 42.7811 97.3552 41.6933 95.6635C40.9276 94.4724 39.3186 94.6765 38.094 94.6754L33.527 94.6744C31.0628 94.6742 28.9625 94.9203 27.0514 93.09C24.5535 90.6978 25.2775 87.4535 25.1921 84.3485C23.7329 82.4262 22.5512 81.4313 23.8403 78.8935C21.6689 77.2465 22.3729 75.035 23.1313 72.8131C17.0761 70.1789 16.7113 70.2134 19.8191 64.7642L23.212 58.864C23.6657 58.0632 24.1527 57.282 24.5706 56.4614Z" fill="#E21F2F"/>
<path d="M76.7279 43.9796L76.4602 44.3651C74.2979 47.446 72.3664 45.8201 70.6091 43.4644L67.1234 38.7005C66.3908 37.6807 65.5318 36.6917 64.929 35.5899C63.1161 32.276 65.4959 28.396 69.2602 27.9481C71.0134 27.8735 72.8016 27.9499 74.5588 27.9476C76.9271 27.9441 79.4945 27.4995 81.5061 29.0316C83.4802 30.5351 84.0055 33.349 82.9449 35.5425C82.051 37.3913 78.0833 42.2063 76.7279 43.9796ZM69.2602 30.5389C67.254 30.9169 66.316 33.019 67.4342 34.7705C67.9006 35.501 73.528 43.1951 73.7415 43.3301C74.1221 43.5708 75.7353 41.1061 75.9891 40.6971C76.918 39.5208 80.0776 35.5985 80.6523 34.4592C81.4355 32.9067 80.6038 30.8834 78.8499 30.6117C77.7315 30.4383 76.5031 30.5372 75.3681 30.5365L69.2602 30.5389Z" fill="#E21F2F"/>
<path d="M85.9962 34.3296C85.9533 33.1292 85.514 31.9301 86.7499 31.902C91.4995 31.7576 92.4926 33.8637 92.493 38.1771L92.5083 41.0768C92.4996 45.7638 88.8588 45.8787 85.2916 45.8782L80.5012 45.8747H78.5737C79.0502 44.9895 79.7372 44.2409 80.2605 43.3838L85.4801 43.387C87.479 43.3873 89.921 43.8085 90.0492 41.0224C90.2601 36.4296 91.0017 34.32 85.9962 34.3296Z" fill="#E21F2F"/>
<path d="M82.3867 40.6972C83.1201 39.6432 83.9549 38.6631 84.6941 37.6121C85.7041 37.6049 87.7661 37.3426 88.5198 38.094C89.7426 39.3125 88.563 40.7506 86.7498 40.6972H82.3867Z" fill="#E21F2F"/>
<path d="M79.9175 61.0517C80.7713 61.0742 81.5494 60.9821 82.3866 60.8391L82.4567 60.9108C81.2204 68.4678 78.9136 73.0311 74.3 79.299C72.6661 81.5185 70.9332 82.8626 70.5324 85.809C69.9833 89.8468 74.6872 100.473 74.1509 101.616C73.7691 102.431 72.886 102.52 72.1559 102.122C71.3422 101.244 70.2572 96.7224 69.8124 95.3192C68.3536 90.7184 66.7365 86.1842 69.2698 81.6556C70.096 80.179 71.4608 78.8813 72.4749 77.4957C75.8253 72.9186 79.2509 66.8185 79.9175 61.0517Z" fill="#E21F2F"/>
<path d="M31.0694 81.1493C30.0133 81.1727 27.3562 81.191 28.3563 79.2555C29.1424 77.7337 33.4071 80.0852 35.7131 75.5029C36.6534 75.9147 37.5665 76.3687 38.5319 76.7217C36.1399 79.2143 34.6544 80.7403 31.0694 81.1493Z" fill="#E21F2F"/>
</svg>
