<svg width="212" height="40" viewBox="0 0 212 40" fill="none" xmlns="http://www.w3.org/2000/svg">
<path fill-rule="evenodd" clip-rule="evenodd" d="M16.2904 0.401586C17.2222 -0.133903 18.3701 -0.133903 19.3019 0.401586C22.6599 2.33114 30.7293 6.96812 34.0873 8.89768C35.019 9.43316 35.5931 10.4226 35.5931 11.4935V28.4856C35.5931 29.5564 35.019 30.5459 34.0873 31.0814C30.7293 33.011 22.6599 37.6479 19.3019 39.5775C18.3701 40.113 17.2222 40.113 16.2904 39.5775C12.9324 37.6479 4.86305 33.011 1.5052 31.0814C0.573281 30.5459 -0.000610352 29.5564 -0.000610352 28.4856V11.4935C-0.000610352 10.4226 0.573281 9.43316 1.5052 8.89768C4.86305 6.96812 12.9324 2.33114 16.2904 0.401586Z" fill="#E21F2F"/>
<path fill-rule="evenodd" clip-rule="evenodd" d="M7.10866 9.50635C7.12635 9.45207 7.17729 9.41522 7.23477 9.41522C7.2921 9.41522 7.34303 9.45207 7.36072 9.50635C7.61508 10.2852 8.16522 11.9706 8.16522 11.9706H10.7685C10.826 11.9706 10.8768 12.0074 10.8946 12.0619C10.9123 12.1161 10.8928 12.1756 10.8465 12.2092C10.1809 12.6906 8.74042 13.7322 8.74042 13.7322C8.74042 13.7322 9.29056 15.4176 9.54475 16.1964C9.5626 16.2507 9.54311 16.3104 9.4966 16.344C9.45025 16.3776 9.38736 16.3776 9.34084 16.344C8.67523 15.8626 7.23477 14.821 7.23477 14.821C7.23477 14.821 5.79431 15.8626 5.12854 16.344C5.08219 16.3776 5.0193 16.3776 4.97279 16.344C4.92627 16.3104 4.90694 16.2507 4.92463 16.1964C5.17882 15.4176 5.72913 13.7322 5.72913 13.7322C5.72913 13.7322 4.28867 12.6906 3.62306 12.2092C3.57655 12.1756 3.55706 12.1161 3.57491 12.0619C3.5926 12.0074 3.64353 11.9706 3.70086 11.9706H6.30417C6.30417 11.9706 6.85447 10.2852 7.10866 9.50635Z" fill="#FEE15A"/>
<path fill-rule="evenodd" clip-rule="evenodd" d="M13.8183 7.5444C13.8304 7.518 13.8584 7.50251 13.8874 7.50593C13.9164 7.50952 13.9398 7.53103 13.9455 7.55956C14.0086 7.87776 14.1237 8.4584 14.1237 8.4584C14.1237 8.4584 14.7142 8.52899 15.0376 8.56762C15.0666 8.57104 15.0901 8.59272 15.0956 8.62125C15.1014 8.64977 15.0879 8.67863 15.0624 8.69281C14.7779 8.85077 14.2585 9.13913 14.2585 9.13913C14.2585 9.13913 14.3737 9.71994 14.4367 10.038C14.4423 10.0665 14.4289 10.0955 14.4033 10.1097C14.3779 10.1237 14.3462 10.12 14.3247 10.1002C14.0857 9.87969 13.6498 9.47721 13.6498 9.47721C13.6498 9.47721 13.1304 9.76558 12.8459 9.92354C12.8204 9.93772 12.7886 9.93397 12.7671 9.91424C12.7459 9.89436 12.7396 9.86322 12.7519 9.83681C12.8887 9.54258 13.1386 9.00547 13.1386 9.00547C13.1386 9.00547 12.7026 8.60299 12.4637 8.38244C12.4422 8.36271 12.4361 8.33142 12.4484 8.30501C12.4605 8.2786 12.4885 8.26311 12.5175 8.2667C12.841 8.30533 13.4314 8.37576 13.4314 8.37576C13.4314 8.37576 13.6814 7.83864 13.8183 7.5444Z" fill="#FEE15A"/>
<path fill-rule="evenodd" clip-rule="evenodd" d="M17.0168 10.7516C17.0449 10.743 17.0752 10.7532 17.092 10.777C17.1089 10.8008 17.1084 10.8326 17.0909 10.8559C16.896 11.1156 16.5401 11.59 16.5401 11.59C16.5401 11.59 16.8834 12.0733 17.0712 12.3382C17.0881 12.3618 17.0878 12.3938 17.0702 12.4171C17.0527 12.4402 17.0222 12.4497 16.9946 12.4404C16.686 12.3361 16.1229 12.1458 16.1229 12.1458C16.1229 12.1458 15.767 12.62 15.5721 12.8799C15.5546 12.9032 15.5241 12.9126 15.4965 12.9032C15.4688 12.8939 15.4503 12.868 15.4508 12.8388C15.455 12.5146 15.4629 11.9227 15.4629 11.9227C15.4629 11.9227 14.8996 11.7324 14.5912 11.6283C14.5636 11.6188 14.5451 11.5929 14.5455 11.5637C14.5459 11.5347 14.565 11.5091 14.5929 11.5006C14.9041 11.4045 15.4721 11.2289 15.4721 11.2289C15.4721 11.2289 15.4799 10.6372 15.4842 10.313C15.4845 10.2838 15.5037 10.2583 15.5315 10.2497C15.5595 10.2411 15.5898 10.2513 15.6067 10.2751C15.7945 10.5399 16.1378 11.0232 16.1378 11.0232C16.1378 11.0232 16.7058 10.8478 17.0168 10.7516Z" fill="#FEE15A"/>
<path fill-rule="evenodd" clip-rule="evenodd" d="M17.0677 14.6039C17.0967 14.6009 17.1244 14.6169 17.1362 14.6435C17.148 14.6702 17.1411 14.7013 17.1193 14.7206C16.8764 14.9366 16.4327 15.3309 16.4327 15.3309C16.4327 15.3309 16.6725 15.8726 16.8037 16.1694C16.8155 16.196 16.8088 16.2271 16.787 16.2464C16.7652 16.2657 16.7333 16.269 16.708 16.2543C16.4267 16.0912 15.9129 15.793 15.9129 15.793C15.9129 15.793 15.4692 16.1873 15.2263 16.4033C15.2045 16.4227 15.1726 16.4258 15.1474 16.4113C15.1221 16.3966 15.1092 16.3675 15.1154 16.3391C15.1845 16.0222 15.3105 15.4437 15.3105 15.4437C15.3105 15.4437 14.7967 15.1457 14.5152 14.9824C14.49 14.9677 14.477 14.9387 14.4832 14.9102C14.4895 14.8818 14.5134 14.8606 14.5424 14.8577C14.8665 14.8251 15.4582 14.7656 15.4582 14.7656C15.4582 14.7656 15.5842 14.1872 15.6533 13.8703C15.6594 13.8418 15.6833 13.8206 15.7124 13.8177C15.7414 13.8147 15.7691 13.8309 15.7809 13.8574C15.9121 14.1541 16.1518 14.6958 16.1518 14.6958C16.1518 14.6958 16.7436 14.6365 17.0677 14.6039Z" fill="#FEE15A"/>
<path fill-rule="evenodd" clip-rule="evenodd" d="M14.8981 17.7511C14.9262 17.7592 14.9457 17.7845 14.9465 17.8135C14.9474 17.8425 14.9293 17.869 14.9018 17.8787C14.5951 17.9878 14.0349 18.1868 14.0349 18.1868C14.0349 18.1868 14.0521 18.7784 14.0615 19.1026C14.0623 19.1316 14.0443 19.1579 14.0167 19.1677C13.9892 19.1774 13.9586 19.1685 13.9407 19.1455C13.7418 18.8887 13.3785 18.4201 13.3785 18.4201C13.3785 18.4201 12.8184 18.6193 12.5116 18.7283C12.4841 18.7381 12.4533 18.7292 12.4356 18.706C12.4177 18.683 12.4168 18.6512 12.4333 18.6273C12.6171 18.3595 12.9525 17.8707 12.9525 17.8707C12.9525 17.8707 12.5892 17.4023 12.3902 17.1455C12.3724 17.1225 12.3716 17.0906 12.3879 17.0666C12.4045 17.0427 12.4346 17.0319 12.4626 17.04C12.7753 17.1313 13.3459 17.2979 13.3459 17.2979C13.3459 17.2979 13.6815 16.8092 13.8652 16.5416C13.8818 16.5176 13.9119 16.5068 13.9399 16.515C13.9679 16.5231 13.9874 16.5484 13.9882 16.5774C13.9977 16.9017 14.0148 17.4932 14.0148 17.4932C14.0148 17.4932 14.5856 17.6598 14.8981 17.7511Z" fill="#FEE15A"/>
<path d="M60.003 31.9049C58.0947 31.9049 56.3924 31.5878 54.8961 30.9538C53.4214 30.3197 52.1637 29.4531 51.1227 28.354C50.1035 27.2338 49.3228 25.9657 48.7807 24.5495C48.2602 23.1123 48 21.5905 48 19.9841C48 18.2299 48.2928 16.6235 48.8783 15.1651C49.4855 13.7067 50.3312 12.4491 51.4155 11.3923C52.4998 10.3144 53.7901 9.47952 55.2864 8.88771C56.7827 8.2959 58.4308 8 60.2307 8C61.4018 8 62.4427 8.11625 63.3535 8.34874C64.2643 8.58124 65.0124 8.84544 65.5979 9.14135C66.1835 9.41612 66.5521 9.63805 66.7039 9.80713L65.11 12.9775C64.5245 12.4703 63.798 12.0581 62.9306 11.7411C62.0849 11.424 61.0873 11.2655 59.938 11.2655C58.4417 11.2655 57.0863 11.6248 55.8719 12.3435C54.6792 13.0621 53.725 14.0766 53.0094 15.3871C52.3155 16.6975 51.9685 18.251 51.9685 20.0476C51.9685 21.6328 52.2721 23.0806 52.8793 24.391C53.4865 25.6803 54.3756 26.716 55.5466 27.498C56.7393 28.2801 58.1814 28.6711 59.8729 28.6711C60.8054 28.6711 61.7162 28.5548 62.6053 28.3223C63.5161 28.0687 64.4486 27.6565 65.4028 27.0859L66.4762 30.0978C66.1943 30.3514 65.7172 30.6262 65.045 30.9221C64.3727 31.1968 63.592 31.4293 62.7029 31.6196C61.8355 31.8098 60.9355 31.9049 60.003 31.9049Z" fill="white"/>
<path d="M70.1979 31.683V8.38045H73.6134V17.1308L73.4833 19.8256C73.8737 18.959 74.5134 18.2299 75.4025 17.638C76.3133 17.0462 77.3976 16.7503 78.6554 16.7503C80.2601 16.7503 81.4636 17.0779 82.266 17.7332C83.0684 18.3672 83.5997 19.2761 83.8599 20.4597C84.1418 21.6433 84.2828 23.0489 84.2828 24.6764V31.683H80.8022V24.6446C80.8022 22.9538 80.6288 21.6962 80.2818 20.8719C79.9348 20.0476 79.1433 19.6354 77.9072 19.6354C77.3 19.6354 76.6603 19.8256 75.988 20.2061C75.3374 20.5654 74.7845 21.1044 74.3291 21.823C73.8737 22.5205 73.646 23.3976 73.646 24.4544V31.683H70.1979Z" fill="white"/>
<path d="M88.4022 31.683V17.1308H92.0454V31.683H88.4022ZM90.2238 14.4042C89.5516 14.4042 88.9877 14.1823 88.5323 13.7384C88.0986 13.2946 87.8818 12.745 87.8818 12.0898C87.8818 11.498 88.0986 10.9908 88.5323 10.568C88.9877 10.1453 89.5516 9.93395 90.2238 9.93395C90.8961 9.93395 91.4491 10.1453 91.8828 10.568C92.3382 10.9908 92.5659 11.498 92.5659 12.0898C92.5659 12.745 92.3382 13.2946 91.8828 13.7384C91.4491 14.1823 90.8961 14.4042 90.2238 14.4042Z" fill="white"/>
<path d="M96.2106 31.683V17.1308H99.6586L99.6912 19.7939C100.081 18.9273 100.71 18.2087 101.578 17.638C102.467 17.0462 103.53 16.7503 104.766 16.7503C106.37 16.7503 107.574 17.0779 108.376 17.7332C109.179 18.3672 109.71 19.2761 109.97 20.4597C110.252 21.6433 110.393 23.0489 110.393 24.6764V31.683H106.88V24.7715C106.88 23.0806 106.706 21.7913 106.36 20.9036C106.034 20.0159 105.264 19.572 104.05 19.572C103.421 19.572 102.771 19.7622 102.098 20.1427C101.426 20.5231 100.862 21.0727 100.407 21.7913C99.9514 22.5099 99.7237 23.3976 99.7237 24.4544V31.683H96.2106Z" fill="white"/>
<path d="M121.206 32C119.884 32 118.648 31.6935 117.498 31.0806C116.371 30.4676 115.46 29.5905 114.766 28.4491C114.072 27.3078 113.725 25.9445 113.725 24.3593C113.725 22.8375 114.018 21.5059 114.603 20.3646C115.21 19.2232 116.056 18.3355 117.14 17.7015C118.246 17.0674 119.558 16.7503 121.076 16.7503C121.987 16.7503 122.811 16.9089 123.549 17.2259C124.308 17.5218 124.936 17.8917 125.435 18.3355C125.956 18.7583 126.303 19.1704 126.476 19.572L126.541 17.1308H129.892V31.683H126.574L126.509 29.1149C126.292 29.5799 125.923 30.0343 125.403 30.4782C124.904 30.9221 124.297 31.2919 123.581 31.5878C122.865 31.8626 122.074 32 121.206 32ZM121.792 29.1466C122.594 29.1466 123.321 28.967 123.971 28.6077C124.644 28.2272 125.175 27.6988 125.565 27.0225C125.977 26.3461 126.183 25.5429 126.183 24.6129V24.391C126.183 23.4399 125.977 22.6156 125.565 21.9181C125.175 21.1995 124.644 20.6499 123.971 20.2695C123.321 19.8679 122.594 19.6671 121.792 19.6671C120.339 19.6671 119.244 20.1215 118.507 21.0304C117.791 21.9392 117.433 23.0594 117.433 24.391C117.433 25.7437 117.791 26.8745 118.507 27.7834C119.244 28.6922 120.339 29.1466 121.792 29.1466Z" fill="white"/>
<path d="M136.983 31.683V11.4875H130.868V8.38045H146.774V11.4875H140.594V31.683H136.983Z" fill="white"/>
<path d="M147.669 31.683V17.1308H151.183V19.9841C151.53 19.033 152.083 18.2616 152.842 17.6697C153.622 17.0568 154.522 16.7503 155.541 16.7503C156.235 16.7503 156.712 16.8137 156.973 16.9406L156.485 20.3963C156.29 20.2695 155.867 20.2061 155.216 20.2061C154.674 20.2061 154.088 20.3223 153.46 20.5548C152.831 20.7873 152.289 21.1995 151.833 21.7913C151.399 22.362 151.183 23.1651 151.183 24.2008V31.683H147.669Z" fill="white"/>
<path d="M165.584 32C164.261 32 163.025 31.6935 161.876 31.0806C160.748 30.4676 159.837 29.5905 159.143 28.4491C158.449 27.3078 158.102 25.9445 158.102 24.3593C158.102 22.8375 158.395 21.5059 158.981 20.3646C159.588 19.2232 160.433 18.3355 161.518 17.7015C162.624 17.0674 163.936 16.7503 165.454 16.7503C166.364 16.7503 167.189 16.9089 167.926 17.2259C168.685 17.5218 169.314 17.8917 169.813 18.3355C170.333 18.7583 170.68 19.1704 170.853 19.572L170.918 17.1308H174.269V31.683H170.951L170.886 29.1149C170.669 29.5799 170.3 30.0343 169.78 30.4782C169.281 30.9221 168.674 31.2919 167.958 31.5878C167.243 31.8626 166.451 32 165.584 32ZM166.169 29.1466C166.972 29.1466 167.698 28.967 168.349 28.6077C169.021 28.2272 169.552 27.6988 169.943 27.0225C170.355 26.3461 170.561 25.5429 170.561 24.6129V24.391C170.561 23.4399 170.355 22.6156 169.943 21.9181C169.552 21.1995 169.021 20.6499 168.349 20.2695C167.698 19.8679 166.972 19.6671 166.169 19.6671C164.716 19.6671 163.621 20.1215 162.884 21.0304C162.168 21.9392 161.81 23.0594 161.81 24.391C161.81 25.7437 162.168 26.8745 162.884 27.7834C163.621 28.6922 164.716 29.1466 166.169 29.1466Z" fill="white"/>
<path d="M185.279 32C183.956 32 182.72 31.6935 181.571 31.0806C180.443 30.4676 179.532 29.5905 178.838 28.4491C178.144 27.3078 177.797 25.9445 177.797 24.3593C177.797 22.8164 178.09 21.4848 178.676 20.3646C179.283 19.2232 180.128 18.3355 181.213 17.7015C182.319 17.0674 183.631 16.7503 185.149 16.7503C186.016 16.7503 186.829 16.8983 187.588 17.1942C188.347 17.469 188.998 17.8388 189.54 18.3038C190.082 18.7688 190.473 19.2761 190.711 19.8256L190.548 17.3527V8.38045H193.996V31.683H190.646L190.581 29.1149C190.364 29.5799 189.995 30.0343 189.475 30.4782C188.976 30.9221 188.369 31.2919 187.653 31.5878C186.938 31.8626 186.146 32 185.279 32ZM185.864 29.1149C186.667 29.1149 187.393 28.9353 188.044 28.576C188.716 28.1955 189.247 27.6671 189.638 26.9908C190.05 26.3144 190.256 25.5112 190.256 24.5812V24.3593C190.256 23.4082 190.05 22.5839 189.638 21.8864C189.247 21.1678 188.716 20.6182 188.044 20.2378C187.393 19.8362 186.667 19.6354 185.864 19.6354C184.411 19.6354 183.316 20.0898 182.579 20.9987C181.863 21.9075 181.506 23.0277 181.506 24.3593C181.506 25.712 181.863 26.8428 182.579 27.7516C183.316 28.6605 184.411 29.1149 185.864 29.1149Z" fill="white"/>
<path d="M205.429 32C203.564 32 202.046 31.6513 200.875 30.9538C199.704 30.2351 198.848 29.2946 198.305 28.1321C197.763 26.9696 197.492 25.7332 197.492 24.4227C197.492 22.8375 197.818 21.4742 198.468 20.3329C199.14 19.1915 200.062 18.3144 201.233 17.7015C202.404 17.0674 203.727 16.7503 205.202 16.7503C207.565 16.7503 209.289 17.395 210.374 18.6843C211.458 19.9524 212 21.6645 212 23.8203C212 24.391 211.967 24.9828 211.902 25.5958H201.168C201.407 26.9062 201.884 27.8468 202.599 28.4174C203.337 28.967 204.312 29.2417 205.527 29.2417C206.698 29.2417 207.619 29.1361 208.292 28.9247C208.964 28.7133 209.517 28.502 209.951 28.2906L211.024 30.7318C210.59 31.0066 209.918 31.2919 209.007 31.5878C208.097 31.8626 206.904 32 205.429 32ZM201.168 23.218H208.584C208.606 21.8441 208.292 20.9036 207.641 20.3963C206.991 19.889 206.145 19.6354 205.104 19.6354C204.02 19.6354 203.131 19.9207 202.437 20.4914C201.764 21.041 201.341 21.9498 201.168 23.218Z" fill="white"/>
</svg>
