<svg width="24" height="24" viewBox="0 0 24 24" fill="none" xmlns="http://www.w3.org/2000/svg">
<path d="M20.8901 10.3034C21.0162 9.45313 20.9737 8.58632 20.7651 7.75242C20.4796 6.61302 19.8893 5.57283 19.0576 4.74342C18.2282 3.91149 17.188 3.32104 16.0486 3.03542C15.2146 2.82693 14.3478 2.78463 13.4976 2.91092M17.0951 9.90192C17.165 9.43784 17.1248 8.96382 16.9779 8.5181C16.8309 8.07239 16.5813 7.66744 16.2491 7.33592C15.9175 7.00372 15.5126 6.75408 15.0669 6.60713C14.6212 6.46018 14.1471 6.42003 13.6831 6.48992" stroke="white" stroke-width="2" stroke-linecap="round" stroke-linejoin="round"/>
<path d="M7.18817 4.39697C7.36654 4.39706 7.54164 4.44487 7.69532 4.53542C7.849 4.62597 7.97566 4.75598 8.06217 4.91197L9.28567 7.11497C9.36461 7.25714 9.40769 7.41642 9.41118 7.579C9.41466 7.74158 9.37845 7.90255 9.30567 8.04797L8.12717 10.4045C8.12717 10.4045 8.46867 12.1605 9.89767 13.5895C11.3272 15.0185 13.0772 15.3545 13.0772 15.3545L15.4332 14.176C15.5787 14.1032 15.7398 14.067 15.9025 14.0706C16.0651 14.0742 16.2245 14.1174 16.3667 14.1965L18.5767 15.425C18.7324 15.5117 18.8621 15.6384 18.9524 15.7921C19.0426 15.9457 19.0902 16.1208 19.0902 16.299V18.836C19.0902 20.1275 17.8902 21.061 16.6662 20.6475C14.1522 19.7995 10.2502 18.184 7.77617 15.711C5.30317 13.2375 3.68817 9.33497 2.83967 6.82097C2.42667 5.59697 3.35967 4.39697 4.65167 4.39697H7.18817Z" stroke="white" stroke-width="2" stroke-linejoin="round"/>
</svg>
