<svg width="120" height="121" viewBox="0 0 120 121" fill="none" xmlns="http://www.w3.org/2000/svg">
<path d="M49.1805 49.2881C48.5767 47.7377 47.7034 46.2715 46.9848 44.7701L41.3948 33.2058C40.2351 30.8041 37.2962 27.2981 41.4939 27.187C42.7354 27.1851 48.4858 27.0284 49.2686 27.3544C50.5363 27.8817 64.2545 41.3487 66.1293 43.0596C67.5623 44.3672 68.9348 45.7882 70.4458 47.0039C71.8694 47.1061 73.3771 46.8429 74.7976 46.7091L84.0259 45.7791C94.3141 44.843 100.145 49.8628 107.358 55.8769C112.27 59.9723 108.449 65.1677 103.552 67.3833C97.8733 69.9525 94.7704 69.693 88.7153 69.6933L78.8891 69.6914C77.4573 69.6916 75.9241 69.5552 74.5035 69.6914C73.7516 70.1466 73.0668 70.8804 72.4197 71.4741L53.9957 88.3992C52.3755 89.8619 50.7709 92.1949 48.4436 92.4518C47.5483 92.5507 40.7172 92.5861 40.1732 92.3939C39.2753 92.077 39.1504 91.2134 39.4766 90.4191C41.8956 85.62 44.542 80.9121 47.1332 76.204L49.3124 72.2962C49.7875 71.4443 50.3057 70.5949 50.6767 69.6914L35.4168 69.6966C31.8991 69.7055 29.7845 68.621 26.6179 67.3601C25.8805 68.396 21.0371 74.5542 20.4744 74.9522C19.8276 75.4097 17.6757 75.1362 16.8994 75.1331C10.9991 75.1104 12.0047 74.8774 13.2711 69.7737C14.2075 65.9998 15.2212 62.2228 16.2837 58.4819C15.9498 57.4479 15.529 56.4284 15.1601 55.4041L11.8487 46.3697C10.2051 41.8289 9.23593 40.6774 15.2672 41.0864C19.0722 41.3447 20.8768 44.1302 23.3874 46.6385C24.9362 48.1861 26.6052 49.6755 28.0466 51.322C30.8394 50.8387 34.1167 50.696 36.9824 50.4328L44.7944 49.7102C46.2557 49.5703 47.7163 49.395 49.1805 49.2881ZM42.6918 29.8437C43.2871 31.2396 44.0223 32.5898 44.6802 33.9584L51.0002 46.9744C51.3119 47.6255 51.6749 48.2798 51.9348 48.9513C56.3962 48.4118 61.1591 48.0216 65.639 47.6512L67.0258 47.4944C65.5094 45.9736 63.8709 44.5774 62.2973 43.1175L55.5299 36.7615C53.065 34.478 50.7126 32.0353 48.1652 29.8437H42.6918ZM13.6609 43.6999L17.3589 53.8533C17.8151 55.0912 18.2207 56.3752 18.7257 57.5911L27.6144 57.5887C28.6872 57.5885 34.3141 56.9156 32.7105 59.6836C31.7066 61.4163 29.5616 63.5737 28.3042 65.303C31.0956 66.262 32.3376 67.0856 35.4803 67.0816L52.2644 67.077C55.1791 60.9274 54.1026 62.0913 60.643 62.0955L75.3857 62.0958C76.4582 62.096 81.7464 61.4658 80.6073 63.7917C80.2405 64.5405 77.9291 66.3502 77.1859 67.077L88.8159 67.0774C91.1826 67.0788 93.7909 67.2502 96.1251 66.9101C99.0958 66.4772 103.64 65.0327 105.753 62.8259C107.132 61.3256 107.505 59.5219 105.867 58.0664C104.685 57.0166 102.302 54.8503 101.048 54.0551C95.8333 54.6771 95.5996 58.5213 93.8085 58.9559C92.8933 58.7037 92.2652 58.2251 92.5434 57.1985C93.2001 54.7762 95.9725 52.901 98.237 52.0235C95.1887 49.7632 90.7321 48.5695 87.0294 48.3312C85.008 48.2009 83.0029 48.5723 80.9971 48.7657L32.4562 53.463C27.2369 53.9597 27.9587 54.9037 24.3107 51.2955L19.2172 46.1894C17.1759 44.1663 16.6998 43.6071 13.6609 43.6999ZM18.4704 60.1652C17.5026 64.1077 15.9243 68.7035 15.2525 72.6185H19.2034C20.0174 71.2788 21.1523 70.0019 22.1632 68.8022C24.5092 65.9599 26.6973 62.9677 29.0847 60.1652C27.8802 60.199 26.6694 60.1664 25.4641 60.1657L18.4704 60.1652ZM75.655 64.7885H56.4416C54.9168 67.7576 53.2452 70.6526 51.6367 73.5766L44.0087 87.5459C43.6241 88.2316 43.0844 88.9901 42.8259 89.7258L42.8662 89.7923L42.993 89.8017C50.3034 89.8015 47.9448 90.382 53.5279 85.1566L63.0927 76.3066C66.6491 73.0404 70.1819 69.7326 73.8292 66.5669C74.4667 66.0138 75.2709 65.4968 75.793 64.8337L75.753 64.777L75.655 64.7885Z" fill="#E21F2F"/>
<path d="M44.3114 58.2767C40.0465 58.3221 41.5226 55.6547 43.2832 55.5452C44.52 55.5181 45.386 55.511 45.7824 56.847C45.5799 57.7289 45.2855 58.2272 44.3114 58.2767Z" fill="#E21F2F"/>
<path d="M49.9508 58.2767C46.0944 58.322 47.2241 55.628 49.1806 55.5453C52.6534 55.4164 51.954 58.2331 49.9508 58.2767Z" fill="#E21F2F"/>
<path d="M38.5729 58.2768C37.9202 58.2846 37.0115 58.4031 36.4411 58.0586C35.2743 57.3534 35.8195 55.766 37.0286 55.5454C37.7057 55.5604 38.6772 55.4791 39.2585 55.8541C40.3727 56.5729 39.7671 58.1343 38.5729 58.2768Z" fill="#E21F2F"/>
</svg>
