<svg width="120" height="121" viewBox="0 0 120 121" fill="none" xmlns="http://www.w3.org/2000/svg">
<path d="M64.9212 50.3688C64.9205 48.8217 64.7829 38.2757 65.0351 37.6701C65.1886 37.3012 65.5376 37.1517 65.8819 37.0059C67.8978 36.9602 67.238 40.1629 67.2321 41.4018C70.7832 41.2945 70.3929 42.6375 72.2229 43.0141C74.5151 43.4857 75.0275 40.7681 78.8445 41.5854C78.8497 40.6195 78.5958 38.0057 79.2045 37.335C79.8085 36.6696 80.975 37.0453 81.1175 37.93C81.2836 38.9625 81.1679 40.7997 81.1679 41.8999L81.1657 50.3688L90.1121 50.3693C91.3257 50.3697 92.9972 50.2549 94.1513 50.388C95.8728 50.5865 95.2386 54.0189 95.2388 55.4318L95.2374 62.9362L99.5136 62.9322C102.567 62.9287 103.201 62.4825 102.527 65.902C101.632 70.4428 98.7476 75.5833 95.2374 78.5943C97.0482 79.2309 98.1007 80.8495 99.7264 81.3189C103.118 82.2982 104.2 78.0663 108.344 78.1591C109.913 78.1943 110.337 79.4435 109.216 80.4276C108.35 80.6182 107.495 80.5631 106.657 80.9177C104.883 81.6677 104.06 83.2708 101.933 83.7328C97.4635 84.7038 96.4812 80.6922 92.99 80.4979C90.6465 80.3674 90.184 81.3098 88.4611 82.5096C86.2301 84.0635 82.8586 84.055 80.6438 82.5065C79.2835 81.5554 78.4329 80.5181 76.6266 80.4651C73.4618 80.3723 72.9964 82.8719 70.0121 83.5106C64.4206 84.7075 63.6889 80.3744 60.061 80.4133C57.0113 80.4459 55.9859 83.1014 53.1814 83.696C49.7283 84.4279 48.3443 82.6802 45.8325 81.0686C43.2563 79.627 41.7776 80.7672 39.6596 82.2942C34.0022 86.3718 31.3071 81.1586 28.0833 80.6456C25.099 80.1707 24.0572 82.2876 21.7649 83.2068C19.9131 83.9493 17.3626 83.7949 15.6522 82.7559C13.2138 81.2746 13.95 81.0686 11.0021 80.5476C9.90555 80.3538 9.4776 78.8936 10.5392 78.3063C11.6342 77.7002 14.3972 78.8725 15.2543 79.5098C19.8324 82.9136 19.7241 81.3016 24.0629 78.9874C22.7666 74.9744 21.8978 70.7929 20.7439 66.7338C19.745 63.22 19.9573 63.5686 17.8623 60.6054C16.7804 59.0751 14.5478 56.1932 13.7351 54.5964C12.7177 52.5977 15.942 53.0109 16.9135 53.0118L21.5976 53.0172L21.6011 48.07C21.5997 47.343 21.3159 46.0218 21.8649 45.4314C22.4289 44.8247 23.6646 44.9751 23.8226 45.8604C23.9654 46.6591 23.8817 47.5802 23.88 48.3932L23.8746 53.0172L31.2329 53.0165C35.689 53.0135 34.6046 52.2468 37.5551 55.2337L41.2425 58.9497C42.3329 60.0447 44.3548 61.8061 45.2248 62.9362H50.9956L50.9946 55.3917C50.9944 54.2278 50.4439 50.591 51.8764 50.3889C52.8507 50.2514 54.7878 50.3704 55.8757 50.3709L64.9212 50.3688ZM77.123 43.7461C76.4768 43.9936 76.0088 44.5022 75.4226 44.8483C71.5904 47.1103 69.631 43.2564 67.2321 43.9422L67.2254 48.3771C67.2246 49.0153 67.1499 49.7409 67.2321 50.3688H78.8445V44.2312C78.274 43.9382 77.7844 43.6989 77.123 43.7461ZM53.3271 52.7086V62.9362H64.9212V52.7086L57.3528 52.7067C56.015 52.7055 54.6638 52.6652 53.3271 52.7086ZM67.2321 52.7086V62.9362H78.8445V52.7086H67.2321ZM81.1657 52.7086V62.9362H92.9527V52.7086H81.1657ZM17.0624 55.4018C19.1564 58.1756 21.7549 61.4179 22.6291 64.7325L23.5224 68.1103C24.4205 71.4736 25.4145 74.8132 26.2463 78.194C31.5073 78.1664 32.0963 81.2371 35.2447 81.3832C38.2948 81.5247 39.2129 78.7525 42.2909 78.2266C47.5454 77.3285 48.2733 81.4422 51.7803 81.4354C54.9321 81.4291 55.5804 78.0337 60.1578 78.0878C64.2968 78.1368 64.7391 80.9132 67.5307 81.2737C71.3536 81.7671 71.8018 78.6501 75.3875 78.1711C80.3145 77.5127 81.3125 81.3443 84.5928 81.3717C86.4043 81.3867 87.2553 80.3341 88.6154 79.3699C89.8702 78.5704 91.0962 78.1809 92.5864 78.194C96.3919 73.8072 98.8404 71.5467 100.286 65.3032L51.2433 65.3039C50.1014 65.3036 44.8812 65.5886 44.1882 65.0915L44.0963 65.0266C43.1145 64.3258 42.0303 63.0501 41.1521 62.1733L34.4023 55.4018H17.0624Z" fill="#E21F2F"/>
<path d="M58.8404 59.5735C58.1077 59.6293 57.1388 59.8627 56.5311 59.36C56.0708 58.9794 55.8263 58.2235 56.2815 57.7414C56.8941 57.0929 58.591 57.3052 59.4477 57.3097C60.1508 57.294 61.2821 57.1243 61.8244 57.6392C62.2859 58.0775 62.2684 58.835 61.8057 59.2655C61.2259 59.8055 59.6424 59.5777 58.8404 59.5735Z" fill="#E21F2F"/>
<path d="M88.92 59.5736C88.0927 59.5748 84.9809 59.7313 84.3992 59.3978C83.3815 58.8149 83.9014 57.561 84.8593 57.3098C85.5694 57.2617 88.9217 57.1963 89.4247 57.444C90.5018 57.9747 89.8524 59.3273 88.92 59.5736Z" fill="#E21F2F"/>
<path d="M75.262 59.5736C73.9523 59.6697 69.6009 60.0693 70.0636 58.1962C70.1688 57.7692 70.4789 57.524 70.8391 57.3098C71.5556 57.2765 74.7206 57.224 75.2465 57.3684C76.4376 57.6956 76.1955 59.1143 75.262 59.5736Z" fill="#E21F2F"/>
</svg>
