<svg width="120" height="121" viewBox="0 0 120 121" fill="none" xmlns="http://www.w3.org/2000/svg">
<path d="M42.8294 81.1976C36.5484 81.7434 30.9262 75.8334 30.8746 69.6253L30.8732 37.0277C30.8646 32.3733 30.6773 29.1122 34.2501 25.5009C36.5986 23.1272 39.5472 22.1694 42.8294 22.1615L74.6765 22.1595C76.4322 22.1597 78.2993 22.0425 80.0278 22.3899C84.5071 23.2901 88.0324 26.7666 88.8998 31.2691C89.231 32.9885 89.1204 34.8061 89.1194 36.5503L89.1201 69.1887C89.1079 76.3362 84.3419 81.2299 77.1555 81.1976C78.1755 82.8968 79.4465 84.5077 80.6015 86.1225L86.9545 95.149C87.3618 95.7225 88.252 96.6246 88.1198 97.3964C87.9574 98.3459 86.8033 98.7384 86.1379 98.0522C85.6279 97.5265 85.2016 96.7477 84.7793 96.1413L82.2693 92.5931H77.4902H37.7238L35.1597 96.2698C34.7461 96.8562 34.3364 97.5464 33.8388 98.0634C33.2292 98.6965 32.1002 98.1211 31.9406 97.3406C31.7484 96.402 33.3982 94.6533 33.9011 93.8958C36.7186 89.6534 40.2072 85.4362 42.8294 81.1976ZM41.8741 24.5416C37.5126 24.8578 33.9644 28.0134 33.3478 32.3482C33.1228 33.9309 33.2597 35.9993 33.2622 37.6268L33.2667 62.137C33.266 64.8574 33.1357 67.6373 33.3414 70.3495C33.6485 74.3972 36.8329 78.0157 40.8536 78.7069C42.345 78.963 43.9521 78.8545 45.4643 78.8545L78.2711 78.852C82.4287 78.5677 86.0163 75.4596 86.6289 71.3004C86.9102 69.3907 86.7642 67.0678 86.7644 65.1244L86.7639 35.1933C86.7729 30.086 85.1814 25.6092 79.3031 24.6851C77.355 24.379 74.9768 24.5384 72.9806 24.5405L44.0578 24.5367C43.3394 24.5351 42.588 24.4859 41.8741 24.5416ZM45.8259 81.1976L41.3407 87.4577C40.6921 88.3598 39.854 89.2751 39.3665 90.2681H74.272C76.3926 90.2702 78.5158 90.2948 80.6362 90.2681C78.7518 87.4064 76.346 83.9234 74.272 81.1976L48.9597 81.1978C47.92 81.198 46.8639 81.2379 45.8259 81.1976Z" fill="#E21F2F"/>
<path d="M51.4742 30.0229C51.0502 30.0811 50.6281 29.9048 50.371 29.5626C50.1139 29.2207 50.0621 28.766 50.236 28.3748C50.4096 27.9839 50.7816 27.7174 51.2077 27.6787C51.8464 27.6208 52.4143 28.0837 52.4867 28.7207C52.5591 29.3578 52.1096 29.9362 51.4742 30.0229Z" fill="#E21F2F"/>
<path d="M54.8693 27.7017H55.8679H65.2078V30.055H64.3066H54.8693C54.8613 29.2708 54.8693 28.4859 54.8693 27.7017Z" fill="#E21F2F"/>
<path d="M69.1111 29.9638C68.5062 30.1749 67.8443 29.8581 67.6297 29.2543C67.415 28.6506 67.7281 27.9868 68.3307 27.7686C68.9379 27.5488 69.6083 27.8649 69.8248 28.4736C70.0411 29.0823 69.721 29.7507 69.1111 29.9638Z" fill="#E21F2F"/>
<path d="M49.2846 57.2324L43.597 57.2352C39.293 57.2349 35.8516 57.3418 35.8005 51.8849L35.7959 43.9986C35.798 37.7895 35.4851 35.9251 42.9623 35.9281L70.8818 35.9305L76.8178 35.9307C79.9059 35.9235 84.2684 35.6656 84.3136 40.2674L84.3187 48.7318C84.3192 51.7255 85.02 56.5049 80.8191 57.1644C79.7004 57.3402 78.4912 57.237 77.3583 57.2354L49.2846 57.2324ZM40.0469 38.2918C37.7374 38.6975 38.1797 41.2049 38.179 42.9594L38.1818 50.7195C38.187 54.4288 38.2971 54.8926 42.4291 54.8727H56.9878C57.6148 54.8663 58.2415 54.8558 58.8682 54.8727V38.2918H40.0469ZM61.2361 38.2918V54.8727L77.9496 54.8774C79.0983 54.8792 80.433 55.112 81.36 54.2942C82.1414 53.3853 81.9649 52.2676 81.9619 51.1543L81.9537 42.8696C81.9588 38.5658 82.0273 38.2742 77.9658 38.2871L61.2361 38.2918Z" fill="#E21F2F"/>
<path d="M43.7404 75.4081C40.8712 75.5278 38.4536 73.2879 38.3547 70.418C38.2558 67.5481 40.5135 65.1469 43.3839 65.0691C46.225 64.992 48.5959 67.2213 48.6939 70.0617C48.7919 72.9019 46.5798 75.2892 43.7404 75.4081ZM43.3858 67.4583C42.381 67.5183 41.4864 68.1148 41.0446 69.0192C40.6028 69.9235 40.6823 70.9957 41.2525 71.8252C41.8227 72.6546 42.7954 73.1126 43.798 73.024C45.318 72.8895 46.4479 71.5594 46.3352 70.0378C46.2224 68.5163 44.9088 67.3674 43.3858 67.4583Z" fill="#E21F2F"/>
<path d="M76.9623 75.4309C74.1456 75.6787 71.6628 73.5932 71.4205 70.7763C71.1781 67.9591 73.2685 65.4803 76.086 65.2436C78.8959 65.0074 81.3664 67.0907 81.6081 69.8999C81.8495 72.7094 79.771 75.1839 76.9623 75.4309ZM76.1741 67.5838C74.6558 67.7798 73.5863 69.1729 73.7893 70.6902C73.9923 72.2076 75.3903 73.2705 76.9067 73.0605C78.4131 72.8519 79.4675 71.4649 79.266 69.9576C79.0644 68.4501 77.6823 67.3891 76.1741 67.5838Z" fill="#E21F2F"/>
</svg>
