<svg width="120" height="121" viewBox="0 0 120 121" fill="none" xmlns="http://www.w3.org/2000/svg">
<path d="M24.9996 75.3373L20.8488 75.342C20.0347 75.3427 18.7581 75.5529 18.0146 75.1413C17.6195 74.9227 14.4206 71.7464 13.973 71.2066C13.3541 70.4602 13.6931 69.0445 13.6945 68.1467L13.699 45.9274C13.6997 43.425 13.6229 40.9008 13.6945 38.4007C13.7223 37.4288 13.9327 37.0149 14.9489 36.8958L64.5811 36.8956C65.5441 36.8956 71.8664 36.6736 72.3987 37.088C73.3559 37.8326 73.0212 39.4282 73.0109 40.4866L89.5681 40.4803C92.8711 40.4557 95.5425 40.7899 97.6695 43.8129C99.405 46.2792 100.904 48.9567 102.509 51.5126L104.28 54.278C106.43 57.5998 106.294 58.5288 106.294 62.5732L106.299 71.9016C106.309 73.2366 106.74 75.0666 104.948 75.2932C103.924 75.4226 102.808 75.3396 101.776 75.3396L95.5753 75.3373C95.2474 77.4319 94.7421 79.121 93.3075 80.7359C87.9771 86.9131 78.1622 83.6004 77.1731 75.3373H43.3603C42.4097 83.4403 32.9098 86.8411 27.4812 81.1081C26.0475 79.5942 24.9502 77.4553 24.9996 75.3373ZM16.0944 39.3457V63.6359L44.2291 63.6345C45.4833 63.6342 46.7681 63.5731 48.0176 63.6703C49.177 63.7608 49.6849 64.973 48.7741 65.8263C48.259 66.3089 38.3266 66.1221 36.9968 66.0755C40.5898 67.0437 42.2456 69.6631 43.3603 72.9237H70.563V67.2823V66.0755L55.4541 66.0846C54.7805 66.0926 54.1008 66.1441 53.4298 66.0755C53.0503 65.7113 52.8038 65.3304 52.807 64.785C52.8162 63.3279 55.2141 63.6361 56.1567 63.6352L70.563 63.6359L70.5645 42.0788C70.5656 41.1736 70.6102 40.2485 70.563 39.3457L22.1104 39.345C20.1082 39.345 18.0955 39.3026 16.0944 39.3457ZM77.1731 42.892H73.0109V72.9237H77.1731C77.4614 72.21 77.7052 71.4722 78.0197 70.7705C81.3131 63.4235 91.8947 63.8977 94.6249 70.6538C95.0154 71.3857 95.2523 72.1031 95.3756 72.9237H103.885L103.883 62.6941C103.883 61.6367 104.015 59.3998 103.839 58.5014C103.701 57.8023 96.8742 46.9519 95.9072 45.5381C93.6202 42.1952 90.4137 42.8902 86.8673 42.8913L77.1731 42.892ZM24.9996 66.0755H16.0944C16.0904 67.3322 16.0585 68.5952 16.0944 69.8513C17.1345 70.8331 18.1133 71.8861 19.0977 72.9237H22.1512H24.9996C26.0754 69.5745 27.6802 67.1135 31.1489 66.0755C29.1127 65.9857 27.0398 66.0778 24.9996 66.0755ZM85.4595 67.886C81.72 68.4038 79.1077 71.8538 79.6235 75.5934C80.1396 79.3331 83.5887 81.9469 87.3286 81.4324C91.0706 80.9175 93.686 77.4661 93.1697 73.7243C92.6534 69.9825 89.2008 67.3683 85.4595 67.886ZM33.3537 67.9376C29.6203 68.3747 26.9438 71.7492 27.3682 75.484C27.7927 79.2188 31.158 81.9068 34.8945 81.4948C38.6484 81.0809 41.3517 77.6958 40.9254 73.9432C40.4988 70.1906 37.1048 67.4986 33.3537 67.9376Z" fill="#E21F2F"/>
<path d="M98.6704 59.9822C97.7519 60.0392 96.8013 59.9858 95.8792 59.9851L82.3556 59.9836C80.9765 59.9841 77.0646 60.5588 76.6394 59.0208C76.3987 58.1494 76.4301 49.3018 76.5346 47.8046C76.5874 47.0497 77.0092 46.7724 77.7311 46.621L89.7351 46.6179C90.4174 46.6184 91.8773 46.4551 92.4426 46.9177C92.8661 47.2643 98.4388 56.1085 99.4366 57.8841C99.9576 58.8113 99.8896 59.8526 98.6704 59.9822ZM80.0263 49.0418H78.9363V57.533H95.3756H96.3037C94.7737 54.8026 92.7224 51.6877 91.0131 49.0418H80.0263Z" fill="#E21F2F"/>
<path d="M86.8647 78.6029C84.6829 78.8561 82.7069 77.2972 82.4448 75.1164C82.183 72.9355 83.7337 70.9532 85.9134 70.6825C88.1059 70.4101 90.1019 71.9715 90.3653 74.165C90.6288 76.3586 89.0591 78.3484 86.8647 78.6029ZM86.1527 73.0714C85.3551 73.1971 84.779 73.9014 84.8141 74.7081C84.8336 75.1569 85.0424 75.5767 85.3888 75.8629C85.7352 76.149 86.1869 76.2749 86.6312 76.2093C87.5015 76.0808 88.1012 75.2694 87.9686 74.3999C87.8359 73.5301 87.0215 72.9343 86.1527 73.0714Z" fill="#E21F2F"/>
<path d="M34.6039 78.5273C33.2108 78.6953 31.8348 78.1012 31.0018 76.972C30.1688 75.8425 30.0076 74.3524 30.5797 73.071C31.1518 71.7897 32.3687 70.9148 33.7658 70.781C35.889 70.5775 37.7813 72.1195 38.0108 74.2401C38.2405 76.361 36.7217 78.2718 34.6039 78.5273ZM33.7177 73.2461C32.9389 73.4777 32.4896 74.291 32.7083 75.0735C32.927 75.8561 33.7327 76.3188 34.5186 76.1132C35.0389 75.9771 35.4453 75.5709 35.5817 75.0508C35.7181 74.5307 35.5637 73.9776 35.1774 73.6035C34.7909 73.2295 34.2331 73.0928 33.7177 73.2461Z" fill="#E21F2F"/>
</svg>
